<mxfile host="65bd71144e">
    <diagram id="Rix9oSCyiJ70Hno5e-Zp" name="Page-1">
        <mxGraphModel dx="1091" dy="556" grid="1" gridSize="10" guides="1" tooltips="1" connect="1" arrows="1" fold="1" page="1" pageScale="1" pageWidth="850" pageHeight="1100" math="0" shadow="0">
            <root>
                <mxCell id="0"/>
                <mxCell id="1" parent="0"/>
                <mxCell id="4" value="" style="edgeStyle=none;html=1;strokeColor=#FF0080;fontColor=#FF0080;" parent="1" source="2" target="3" edge="1">
                    <mxGeometry relative="1" as="geometry"/>
                </mxCell>
                <mxCell id="2" value="Image" style="ellipse;whiteSpace=wrap;html=1;aspect=fixed;" parent="1" vertex="1">
                    <mxGeometry x="120" y="160" width="40" height="40" as="geometry"/>
                </mxCell>
                <mxCell id="6" value="" style="edgeStyle=none;html=1;strokeColor=#FF0080;fontColor=#FF0080;" parent="1" source="3" target="5" edge="1">
                    <mxGeometry relative="1" as="geometry"/>
                </mxCell>
                <mxCell id="3" value="Conv&lt;br&gt;7x7" style="whiteSpace=wrap;html=1;strokeColor=#FF0080;fontColor=#FF0080;" parent="1" vertex="1">
                    <mxGeometry x="200" y="160" width="40" height="40" as="geometry"/>
                </mxCell>
                <mxCell id="8" value="" style="edgeStyle=none;html=1;strokeColor=#FF0080;fontColor=#FF0080;" parent="1" source="5" target="7" edge="1">
                    <mxGeometry relative="1" as="geometry"/>
                </mxCell>
                <mxCell id="5" value="Conv&lt;br&gt;3x3" style="whiteSpace=wrap;html=1;strokeColor=#FF0080;fontColor=#FF0080;" parent="1" vertex="1">
                    <mxGeometry x="280" y="160" width="40" height="40" as="geometry"/>
                </mxCell>
                <mxCell id="7" value="Conv&lt;br&gt;3x3" style="whiteSpace=wrap;html=1;strokeColor=#FF0080;fontColor=#FF0080;" parent="1" vertex="1">
                    <mxGeometry x="360" y="160" width="40" height="40" as="geometry"/>
                </mxCell>
                <mxCell id="14" value="" style="edgeStyle=none;html=1;strokeColor=#FF0080;fontColor=#FF0080;" parent="1" source="12" target="13" edge="1">
                    <mxGeometry relative="1" as="geometry"/>
                </mxCell>
                <mxCell id="12" value="Conv&lt;br&gt;64x64" style="whiteSpace=wrap;html=1;strokeColor=#FF0080;fontColor=#FF0080;" parent="1" vertex="1">
                    <mxGeometry x="440" y="160" width="40" height="40" as="geometry"/>
                </mxCell>
                <mxCell id="13" value="Conv&lt;br&gt;64x64" style="whiteSpace=wrap;html=1;strokeColor=#FF0080;fontColor=#FF0080;" parent="1" vertex="1">
                    <mxGeometry x="520" y="160" width="40" height="40" as="geometry"/>
                </mxCell>
                <mxCell id="22" value="" style="edgeStyle=none;html=1;strokeColor=#FF0080;fontColor=#FF0080;" parent="1" source="16" target="17" edge="1">
                    <mxGeometry relative="1" as="geometry"/>
                </mxCell>
                <mxCell id="16" value="Conv&lt;br&gt;128x128" style="whiteSpace=wrap;html=1;strokeColor=#FF0080;fontColor=#FF0080;" parent="1" vertex="1">
                    <mxGeometry x="600" y="150" width="60" height="60" as="geometry"/>
                </mxCell>
                <mxCell id="17" value="Conv&lt;br&gt;128x128" style="whiteSpace=wrap;html=1;strokeColor=#FF0080;fontColor=#FF0080;" parent="1" vertex="1">
                    <mxGeometry x="710" y="150" width="60" height="60" as="geometry"/>
                </mxCell>
                <mxCell id="19" value="Conv&lt;br&gt;256x256" style="whiteSpace=wrap;html=1;strokeColor=#FF0080;fontColor=#FF0080;" parent="1" vertex="1">
                    <mxGeometry x="820" y="150" width="60" height="60" as="geometry"/>
                </mxCell>
                <mxCell id="20" value="Conv&lt;br&gt;256x256" style="whiteSpace=wrap;html=1;strokeColor=#FF0080;fontColor=#FF0080;" parent="1" vertex="1">
                    <mxGeometry x="930" y="150" width="60" height="60" as="geometry"/>
                </mxCell>
                <mxCell id="27" value="Conv&lt;br&gt;512x512" style="whiteSpace=wrap;html=1;strokeColor=#FF0080;fontColor=#FF0080;" parent="1" vertex="1">
                    <mxGeometry x="1030" y="150" width="60" height="60" as="geometry"/>
                </mxCell>
                <mxCell id="61" style="edgeStyle=none;html=1;entryX=0;entryY=0.5;entryDx=0;entryDy=0;labelBorderColor=#FF0080;strokeColor=#FF0080;fontSize=28;fontColor=#FF0080;" parent="1" source="28" target="30" edge="1">
                    <mxGeometry relative="1" as="geometry"/>
                </mxCell>
                <mxCell id="28" value="Conv&lt;br&gt;512x512" style="whiteSpace=wrap;html=1;strokeColor=#FF0080;fontColor=#FF0080;" parent="1" vertex="1">
                    <mxGeometry x="1140" y="150" width="60" height="60" as="geometry"/>
                </mxCell>
                <mxCell id="30" value="1000 Fully Connected" style="shape=document;whiteSpace=wrap;html=1;boundedLbl=1;strokeColor=#FF0080;fontColor=#FF0080;" parent="1" vertex="1">
                    <mxGeometry x="1260" y="140" width="120" height="80" as="geometry"/>
                </mxCell>
                <mxCell id="32" value="&amp;nbsp;avg pool" style="text;html=1;align=center;verticalAlign=middle;resizable=0;points=[];autosize=1;fontColor=#FF0080;labelBorderColor=none;" parent="1" vertex="1">
                    <mxGeometry x="1190" y="176" width="70" height="30" as="geometry"/>
                </mxCell>
                <mxCell id="33" value="" style="endArrow=classic;html=1;strokeColor=#FF0080;fontColor=#FF0080;" parent="1" edge="1">
                    <mxGeometry width="50" height="50" relative="1" as="geometry">
                        <mxPoint x="260" y="180" as="sourcePoint"/>
                        <mxPoint x="420" y="160" as="targetPoint"/>
                        <Array as="points">
                            <mxPoint x="260" y="120"/>
                            <mxPoint x="340" y="120"/>
                            <mxPoint x="420" y="120"/>
                        </Array>
                    </mxGeometry>
                </mxCell>
                <mxCell id="34" value="" style="endArrow=classic;html=1;strokeColor=#FF0080;fontColor=#FF0080;" parent="1" edge="1">
                    <mxGeometry width="50" height="50" relative="1" as="geometry">
                        <mxPoint x="260" y="180" as="sourcePoint"/>
                        <mxPoint x="420" y="160" as="targetPoint"/>
                        <Array as="points">
                            <mxPoint x="260" y="120"/>
                            <mxPoint x="340" y="120"/>
                            <mxPoint x="420" y="120"/>
                        </Array>
                    </mxGeometry>
                </mxCell>
                <mxCell id="35" value="+" style="ellipse;whiteSpace=wrap;html=1;strokeColor=#FF0080;fontColor=#FF0080;" parent="1" vertex="1">
                    <mxGeometry x="415" y="165" width="10" height="10" as="geometry"/>
                </mxCell>
                <mxCell id="36" value="" style="endArrow=classic;html=1;strokeColor=#FF0080;fontColor=#FF0080;" parent="1" edge="1">
                    <mxGeometry width="50" height="50" relative="1" as="geometry">
                        <mxPoint x="435" y="175" as="sourcePoint"/>
                        <mxPoint x="570" y="160" as="targetPoint"/>
                        <Array as="points">
                            <mxPoint x="435" y="115"/>
                            <mxPoint x="515" y="115"/>
                            <mxPoint x="570" y="115"/>
                        </Array>
                    </mxGeometry>
                </mxCell>
                <mxCell id="37" value="+" style="ellipse;whiteSpace=wrap;html=1;strokeColor=#FF0080;fontColor=#FF0080;" parent="1" vertex="1">
                    <mxGeometry x="566" y="166" width="10" height="10" as="geometry"/>
                </mxCell>
                <mxCell id="39" value="" style="endArrow=classic;html=1;entryX=0.5;entryY=0;entryDx=0;entryDy=0;strokeColor=#FF0080;fontColor=#FF0080;" parent="1" target="40" edge="1">
                    <mxGeometry width="50" height="50" relative="1" as="geometry">
                        <mxPoint x="590" y="180" as="sourcePoint"/>
                        <mxPoint x="725" y="134" as="targetPoint"/>
                        <Array as="points">
                            <mxPoint x="590" y="110"/>
                            <mxPoint x="780" y="110"/>
                        </Array>
                    </mxGeometry>
                </mxCell>
                <mxCell id="40" value="+" style="ellipse;whiteSpace=wrap;html=1;strokeColor=#FF0080;fontColor=#FF0080;" parent="1" vertex="1">
                    <mxGeometry x="775" y="172" width="10" height="10" as="geometry"/>
                </mxCell>
                <mxCell id="45" value="+" style="ellipse;whiteSpace=wrap;html=1;strokeColor=#FF0080;fontColor=#FF0080;" parent="1" vertex="1">
                    <mxGeometry x="1000" y="172" width="10" height="10" as="geometry"/>
                </mxCell>
                <mxCell id="48" value="" style="endArrow=classic;html=1;entryX=0.5;entryY=0;entryDx=0;entryDy=0;strokeColor=#FF0080;fontColor=#FF0080;" parent="1" target="45" edge="1">
                    <mxGeometry width="50" height="50" relative="1" as="geometry">
                        <mxPoint x="810" y="180" as="sourcePoint"/>
                        <mxPoint x="1000" y="172" as="targetPoint"/>
                        <Array as="points">
                            <mxPoint x="810" y="110"/>
                            <mxPoint x="910" y="110"/>
                            <mxPoint x="1005" y="110"/>
                        </Array>
                    </mxGeometry>
                </mxCell>
                <mxCell id="53" value="" style="endArrow=classic;html=1;entryX=0.5;entryY=0;entryDx=0;entryDy=0;strokeColor=#FF0080;fontColor=#FF0080;" parent="1" target="54" edge="1">
                    <mxGeometry width="50" height="50" relative="1" as="geometry">
                        <mxPoint x="1020" y="182" as="sourcePoint"/>
                        <mxPoint x="1215" y="174" as="targetPoint"/>
                        <Array as="points">
                            <mxPoint x="1020" y="112"/>
                            <mxPoint x="1120" y="112"/>
                            <mxPoint x="1215" y="112"/>
                        </Array>
                    </mxGeometry>
                </mxCell>
                <mxCell id="54" value="+" style="ellipse;whiteSpace=wrap;html=1;strokeColor=#FF0080;fontColor=#FF0080;" parent="1" vertex="1">
                    <mxGeometry x="1210" y="170" width="10" height="10" as="geometry"/>
                </mxCell>
                <mxCell id="55" value="&lt;font style=&quot;font-size: 28px;&quot;&gt;...&lt;/font&gt;" style="text;html=1;align=center;verticalAlign=middle;resizable=0;points=[];autosize=1;strokeColor=none;fillColor=none;fontSize=18;fontColor=#FF0080;" parent="1" vertex="1">
                    <mxGeometry x="395" y="150" width="50" height="50" as="geometry"/>
                </mxCell>
                <mxCell id="56" value="&lt;font style=&quot;font-size: 28px;&quot;&gt;...&lt;/font&gt;" style="text;html=1;align=center;verticalAlign=middle;resizable=0;points=[];autosize=1;strokeColor=none;fillColor=none;fontSize=18;fontColor=#FF0080;" parent="1" vertex="1">
                    <mxGeometry x="550" y="146" width="50" height="50" as="geometry"/>
                </mxCell>
                <mxCell id="57" value="&lt;font style=&quot;font-size: 28px;&quot;&gt;...&lt;/font&gt;" style="text;html=1;align=center;verticalAlign=middle;resizable=0;points=[];autosize=1;strokeColor=none;fillColor=none;fontSize=18;fontColor=#FF0080;" parent="1" vertex="1">
                    <mxGeometry x="770" y="150" width="50" height="50" as="geometry"/>
                </mxCell>
                <mxCell id="58" value="&lt;font style=&quot;font-size: 28px;&quot;&gt;...&lt;/font&gt;" style="text;html=1;align=center;verticalAlign=middle;resizable=0;points=[];autosize=1;strokeColor=none;fillColor=none;fontSize=18;fontColor=#FF0080;" parent="1" vertex="1">
                    <mxGeometry x="880" y="146" width="50" height="50" as="geometry"/>
                </mxCell>
                <mxCell id="59" value="&lt;font style=&quot;font-size: 28px;&quot;&gt;...&lt;/font&gt;" style="text;html=1;align=center;verticalAlign=middle;resizable=0;points=[];autosize=1;strokeColor=none;fillColor=none;fontSize=18;fontColor=#FF0080;" parent="1" vertex="1">
                    <mxGeometry x="990" y="152" width="50" height="50" as="geometry"/>
                </mxCell>
                <mxCell id="60" value="&lt;font style=&quot;font-size: 28px;&quot;&gt;...&lt;/font&gt;" style="text;html=1;align=center;verticalAlign=middle;resizable=0;points=[];autosize=1;strokeColor=none;fillColor=none;fontSize=18;fontColor=#FF0080;" parent="1" vertex="1">
                    <mxGeometry x="1090" y="150" width="50" height="50" as="geometry"/>
                </mxCell>
            </root>
        </mxGraphModel>
    </diagram>
</mxfile>